<svg xmlns="http://www.w3.org/2000/svg" xmlns:xlink="http://www.w3.org/1999/xlink" aria-hidden="true" focusable="false" width="1em" height="1em" style="-ms-transform: rotate(360deg); -webkit-transform: rotate(360deg); transform: rotate(360deg);" preserveAspectRatio="xMidYMid meet" viewBox="0 0 24 24"><path d="M12 2C6.486 2 2 6.486 2 12s4.486 10 10 10s10-4.486 10-10S17.514 2 12 2zm0 18c-4.411 0-8-3.589-8-8s3.589-8 8-8s8 3.589 8 8s-3.589 8-8 8z" fill="#626262"/><circle cx="8.5" cy="9.5" r="1.5" fill="#626262"/><circle cx="15.493" cy="9.493" r="1.493" fill="#626262"/><path d="M12 18c5 0 6-5 6-5H6s1 5 6 5z" fill="#626262"/></svg>