<?xml version="1.0" encoding="UTF-8" standalone="no"?>
<!DOCTYPE svg PUBLIC "-//W3C//DTD SVG 1.1//EN" "http://www.w3.org/Graphics/SVG/1.1/DTD/svg11.dtd">
<svg width="100%" height="100%" viewBox="0 0 2449 1310" version="1.1" xmlns="http://www.w3.org/2000/svg" xmlns:xlink="http://www.w3.org/1999/xlink" xml:space="preserve" xmlns:serif="http://www.serif.com/" style="fill-rule:evenodd;clip-rule:evenodd;stroke-linejoin:round;stroke-miterlimit:2;">
    <g id="Artboard1" transform="matrix(1,0,0,1,-10.8657,-313.663)">
        <rect x="10.866" y="313.663" width="2448.03" height="1309.42" style="fill:none;"/>
        <g transform="matrix(1,0,0,1,-10.0633,-3.38324)">
            <text x="205.864px" y="1594.68px" style="font-family:'ArialMT', 'Arial', sans-serif;font-size:177.033px;fill:rgb(255,156,7);">8</text>
        </g>
        <g transform="matrix(1,0,0,1,145.687,2.86181)">
            <text x="205.864px" y="1594.68px" style="font-family:'ArialMT', 'Arial', sans-serif;font-size:177.033px;fill:rgb(200,200,200);">9</text>
        </g>
        <g transform="matrix(1,0,0,1,313.05,0.907465)">
            <text x="205.864px" y="1594.68px" style="font-family:'ArialMT', 'Arial', sans-serif;font-size:177.033px;fill:rgb(200,200,200);">10</text>
        </g>
        <g transform="matrix(1,0,0,1,553.044,-2.6681)">
            <text x="205.864px" y="1594.68px" style="font-family:'ArialMT', 'Arial', sans-serif;font-size:177.033px;fill:rgb(255,144,0);">1<tspan x="291.182px " y="1594.68px ">1</tspan></text>
        </g>
        <g transform="matrix(1,0,0,1,796.551,-1.82418)">
            <text x="205.864px" y="1594.68px" style="font-family:'ArialMT', 'Arial', sans-serif;font-size:177.033px;fill:rgb(185,185,185);">12</text>
        </g>
        <g transform="matrix(1,0,0,1,1062.63,1.08954)">
            <text x="205.864px" y="1594.68px" style="font-family:'ArialMT', 'Arial', sans-serif;font-size:177.033px;fill:rgb(185,185,185);">13</text>
        </g>
        <g transform="matrix(1,0,0,1,1323.78,0.464532)">
            <text x="205.864px" y="1594.68px" style="font-family:'ArialMT', 'Arial', sans-serif;font-size:177.033px;fill:rgb(185,185,185);">14</text>
        </g>
        <g transform="matrix(1,0,0,1,1569.81,-1.64651)">
            <text x="205.864px" y="1594.68px" style="font-family:'ArialMT', 'Arial', sans-serif;font-size:177.033px;fill:rgb(82,162,89);">15</text>
        </g>
        <g transform="matrix(-1.07276,-0.417491,-0.464962,1.19474,1049.97,-96.0073)">
            <rect x="148.5" y="610.4" width="20.521" height="735.434" style="fill:rgb(255,144,0);"/>
        </g>
        <g transform="matrix(1,0,0,1,1958.77,-6.64342)">
            <text x="205.864px" y="1594.68px" style="font-family:'ArialMT', 'Arial', sans-serif;font-size:177.033px;fill:rgb(185,185,185);">16</text>
        </g>
        <g transform="matrix(1.00745,0,0,0.895941,59.2019,-337.343)">
            <rect x="524.6" y="999.937" width="1853.21" height="26.361" style="fill:rgb(255,144,0);"/>
        </g>
        <g transform="matrix(1,0,0,1,687.086,-427.294)">
            <text x="1139.09px" y="963.226px" style="font-family:'ArialMT', 'Arial', sans-serif;font-size:112.08px;fill:rgb(255,144,0);">March 2022</text>
        </g>
        <g transform="matrix(-1.0494,-0.473143,-0.317881,0.705042,1434.18,559.815)">
            <rect x="148.5" y="610.4" width="20.521" height="735.434" style="fill:rgb(255,144,0);"/>
        </g>
        <g transform="matrix(0.746567,0,0,0.896082,668.711,14.0752)">
            <rect x="524.6" y="999.937" width="1853.21" height="26.361" style="fill:rgb(255,144,0);"/>
        </g>
        <g transform="matrix(1,0,0,1,466.755,-74.8012)">
            <text x="1139.09px" y="963.226px" style="font-family:'ArialMT', 'Arial', sans-serif;font-size:112.08px;fill:rgb(255,144,0);">September 2023</text>
        </g>
        <g transform="matrix(-1.05391,-0.463018,-0.140729,0.320324,2212.91,1074.36)">
            <rect x="148.5" y="610.4" width="20.521" height="735.434" style="fill:rgb(82,162,89);"/>
        </g>
        <g transform="matrix(0.268161,0,0,0.896082,1804.98,297.525)">
            <rect x="524.6" y="999.937" width="1853.21" height="26.361" style="fill:rgb(82,162,89);"/>
        </g>
        <g transform="matrix(1,0,0,1,720.265,201.472)">
            <text x="1139.09px" y="963.226px" style="font-family:'ArialMT', 'Arial', sans-serif;font-size:112.08px;fill:rgb(82,162,89);">March 2021</text>
        </g>
    </g>
</svg>
